<svg width="35" height="22" viewBox="0 0 35 22" fill="none" xmlns="http://www.w3.org/2000/svg">
<path fill-rule="evenodd" clip-rule="evenodd" d="M30.5049 20.2445C30.6398 19.6212 30.3857 18.9738 30.0999 18.6142C28.9564 17.1517 26.6695 17.7591 26.3836 19.5413C26.1772 20.804 27.0665 21.7949 28.0988 21.9708C28.742 22.0826 29.3693 21.8589 29.7425 21.5472C30.0919 21.2515 30.3778 20.8679 30.5049 20.2445ZM21.3889 20.1486C21.5636 18.9179 20.6345 17.9669 19.5943 17.815C18.3873 17.6312 17.3709 18.5742 17.2438 19.5972C17.093 20.8679 17.9823 21.8429 19.0384 21.9788C20.309 22.1466 21.238 21.2275 21.3889 20.1486ZM17.9982 8.36872L32.3471 8.37671C32.3392 8.49659 30.5684 14.5304 30.5128 14.6103C29.9252 14.6503 28.2735 14.6103 27.5668 14.6103C26.5901 14.6103 25.6054 14.6183 24.6208 14.6183C24.589 14.6183 18.8637 14.6583 18.7923 14.5863C18.7129 14.4345 18.2444 10.2548 18.165 9.6554C18.1094 9.22384 18.0538 8.79229 17.9982 8.36872ZM17.7441 6.25889C17.6806 5.74741 17.617 5.23594 17.5535 4.72446C17.4582 3.92528 17.3947 3.01422 17.2518 2.23901C17.093 1.3759 16.4577 1.29598 15.6319 1.08819C15.0522 0.936351 11.4709 -0.0306568 11.2248 0.00131036H11.0104C10.5577 -0.0306568 9.96218 0.528769 10.0019 0.968318C10.0019 0.97631 10.0019 1.34393 10.0019 1.35192C9.96218 2.30295 11.5583 2.48676 12.2015 2.6466C12.4635 2.71053 14.9966 3.33389 15.0125 3.39782L15.0601 3.65356C15.076 3.76545 15.0919 3.84536 15.0998 3.95725C15.1316 4.14905 15.1554 4.31688 15.1792 4.53266L16.6006 15.2417C16.7118 16.1208 16.8309 16.7521 17.5376 17.0158C17.9744 17.1837 22.0083 17.0878 22.8341 17.0958H30.8463C31.8389 17.0958 32.0692 16.6003 32.3153 15.857C32.7521 14.5064 33.2126 13.1318 33.6732 11.8132C33.8558 11.2777 34.9993 8.0011 34.9675 7.7054C34.9358 7.55356 34.9993 7.58553 34.9993 7.44167C35.0073 7.30581 34.9437 7.3138 34.9596 7.17794C35.0073 6.69044 34.507 6.36278 34.0544 6.28286L17.7441 6.25889Z" fill="white"/>
<path fill-rule="evenodd" clip-rule="evenodd" d="M1.11518 9.88482H4.87696V6.11518C4.87696 5.50262 5.38743 5 6 5C6.61257 5 7.11518 5.50262 7.11518 6.11518V9.88482H10.877C11.4974 9.88482 12 10.3874 12 11C12 11.6126 11.4974 12.1152 10.877 12.1152H7.11518V15.8848C7.11518 16.4974 6.61257 17 6 17C5.38743 17 4.87696 16.4974 4.87696 15.8848V12.1152H1.11518C0.502618 12.1152 0 11.6126 0 11C0 10.3874 0.502618 9.88482 1.11518 9.88482Z" fill="white"/>
</svg>
