<svg width="19" height="25" viewBox="0 0 19 25" fill="none" xmlns="http://www.w3.org/2000/svg">
<path fill-rule="evenodd" clip-rule="evenodd" d="M13.4891 3.30659C13.6206 3.30659 13.7521 3.30659 13.8753 3.30659C14.3765 3.30659 14.886 3.30659 15.3872 3.30659C16.1513 3.30659 16.9237 3.31488 17.6879 3.2983C18.1644 3.29002 18.4684 3.30659 18.7889 3.69606C19.134 4.12697 19.0436 4.7899 18.6081 5.10479C18.5342 5.15451 18.4602 5.19594 18.3863 5.22909C18.2384 5.27881 18.1151 5.29538 18.0001 5.29538C18.0165 7.44162 17.9919 9.59614 17.9919 11.7424V22.1504C17.9919 22.7802 18.0576 23.3685 17.7454 23.9403C17.4742 24.4458 16.9812 24.8104 16.4307 24.9347C15.9131 25.0424 15.1735 24.9844 14.6312 24.9844C11.7718 24.9844 8.90422 24.943 6.03659 24.9844C5.48608 24.9844 4.92734 24.9927 4.36861 24.9927C4.00707 24.9927 3.64554 24.9927 3.284 24.9844C3.05394 24.9761 2.74992 24.9761 2.52807 24.9264C1.99398 24.8104 1.50098 24.3961 1.23805 23.9237C0.925815 23.3685 0.991549 22.7222 0.991549 22.1172V11.7092C0.991549 10.5574 0.999765 9.39726 0.991549 8.24542C0.991549 7.25931 1.0162 6.2732 0.999765 5.29538C0.769698 5.28709 0.556064 5.25395 0.325997 5.05507C-0.0519705 4.73189 -0.101271 4.11868 0.178097 3.71263C0.564281 3.13257 1.64888 3.29002 2.2487 3.29002C2.85674 3.29002 3.45655 3.30659 4.06459 3.30659C4.52472 3.31488 5.02594 3.32316 5.50251 3.31488C5.49429 3.10771 5.49429 2.90883 5.49429 2.70995C5.49429 2.35363 5.48608 1.77356 5.59289 1.45038C5.74901 0.953187 6.03659 0.580289 6.47208 0.323404C6.99795 0.0085117 7.44986 0.0416582 8.02503 0.0416582C8.51803 0.0416582 9.01103 0.0416582 9.50404 0.0333716C9.90665 0.0333716 10.3093 0.00851171 10.7119 0.00022508C11.854 -0.00806155 13.0783 0.207391 13.4152 1.49182C13.5056 1.83986 13.4973 2.35363 13.4973 2.70995C13.4973 2.90883 13.4891 3.10771 13.4891 3.30659ZM7.47451 3.29002L11.5171 3.2983C11.5171 3.174 11.5171 3.04142 11.5171 2.9254C11.5171 2.65195 11.5253 2.36191 11.5089 2.08845C11.5089 2.08017 11.5007 2.0636 11.5007 2.04702C11.4925 2.04702 11.4843 2.04702 11.4843 2.04702H7.58955C7.4663 2.2459 7.45808 2.84254 7.47451 3.29002ZM3.00464 22.9708C3.01285 22.9708 3.01285 22.979 3.02107 22.979C3.10324 22.9873 3.21005 22.979 3.284 22.979H15.0832C15.2475 22.979 15.8473 23.0205 15.9952 22.9708L16.0034 5.29538L2.99642 5.31195L2.97999 22.8796C2.9882 22.9045 2.99642 22.9293 3.00464 22.9625C3.00464 22.9625 3.00464 22.9625 3.00464 22.9708ZM9.49582 15.7863C9.45474 15.836 9.41365 15.8774 9.38079 15.9105C9.23289 16.068 9.08499 16.2254 8.93709 16.3746L7.10476 18.2059C6.9733 18.3385 6.86648 18.4794 6.71858 18.612C6.29953 18.9766 5.78188 19.076 5.32996 18.6866C5.11633 18.5043 4.98486 18.2557 4.98486 17.9739C4.98486 17.4353 5.37104 17.1287 5.69971 16.7889C6.00373 16.4823 6.30774 16.1674 6.61176 15.8691L8.07433 14.3858L7.49095 13.8057C7.19515 13.4909 6.88291 13.1925 6.58711 12.8859C6.28309 12.5793 5.97908 12.2727 5.67506 11.9661C5.53538 11.8252 5.40391 11.7175 5.28066 11.5601C4.91091 11.1043 4.84517 10.5408 5.32174 10.1182C5.52716 9.9276 5.79009 9.81988 6.06946 9.85303C6.54603 9.90275 6.81718 10.2591 7.12941 10.574L9.49582 12.9688C9.5369 12.9274 9.56977 12.8859 9.61085 12.8528L12.3717 10.0685L12.3963 10.0519C13.3248 9.33925 14.5326 10.5574 13.7603 11.4855L13.7438 11.5104L10.9995 14.2864C10.9584 14.3278 10.9255 14.361 10.8927 14.4024L13.3166 16.8387H13.3248C13.4809 17.021 13.6781 17.1618 13.8178 17.3607C14.4916 18.2888 13.2426 19.4324 12.3552 18.6783C12.1334 18.4877 11.9033 18.2474 11.6979 18.0402C11.361 17.7087 11.0323 17.369 10.7037 17.0292C10.3011 16.6149 9.90665 16.1923 9.49582 15.7863Z" fill="#A5A6A7"/>
</svg>
