<svg viewBox="0 0 29 26" fill="none" xmlns="http://www.w3.org/2000/svg">
<path d="M8.10087 18.4432H9.02338H24.7521C25.1321 18.4432 25.467 18.1815 25.5755 17.7996L28.9643 5.87113C29.0417 5.59859 28.9917 5.30371 28.8296 5.0757C28.6675 4.84768 28.4121 4.71337 28.1409 4.71337H6.27517L5.11902 0.643547C5.01055 0.261741 4.67564 6.55697e-09 4.29558 6.55697e-09H0.859183C0.384704 -5.93722e-05 0 0.403182 0 0.900657C0 1.39807 0.384704 1.80137 0.859183 1.80137H3.65503L4.80568 5.85166C4.8092 5.86502 4.81288 5.87826 4.81696 5.89132L7.87363 16.6509C6.12887 16.7739 4.74497 18.3003 4.74497 20.16C4.74497 22.0999 6.25042 23.6782 8.10082 23.6782H8.95377C9.32652 25.0179 10.5078 26 11.9046 26C13.3013 26 14.4826 25.018 14.8554 23.6782H19.414C19.7867 25.0179 20.968 26 22.3648 26C23.7615 26 24.9428 25.018 25.3156 23.6782H26.4225C26.897 23.6782 27.2817 23.2749 27.2817 22.7775C27.2817 22.28 26.897 21.8767 26.4225 21.8767H25.3156C24.9428 20.5369 23.7615 19.5549 22.3648 19.5549C20.968 19.5549 19.7867 20.5369 19.414 21.8767H14.8554C14.4826 20.5369 13.3013 19.5549 11.9046 19.5549C10.5078 19.5549 9.32647 20.5369 8.95377 21.8767H8.10082C7.19785 21.8767 6.46328 21.1066 6.46328 20.16C6.46328 19.2134 7.19791 18.4432 8.10087 18.4432ZM20.7048 6.51468H26.9886L25.8059 10.6775H20.7048V6.51468V6.51468ZM20.7047 12.479H25.2941L24.1115 16.6418H20.7047V12.479ZM14.3473 6.51468H18.9865V10.6775H14.3473V6.51468ZM14.3473 12.479H18.9864V16.6418H14.3473V12.479V12.479ZM12.6291 16.6418H9.66399L8.48139 12.479H12.6291V16.6418V16.6418ZM6.78703 6.51468H12.629V10.6775H7.96964L6.78703 6.51468ZM22.3648 21.3563C23.1123 21.3563 23.7204 21.9938 23.7204 22.7774C23.7204 23.561 23.1123 24.1985 22.3648 24.1985C21.6173 24.1985 21.0092 23.561 21.0092 22.7774C21.0092 21.9938 21.6173 21.3563 22.3648 21.3563ZM11.9046 21.3563C12.6521 21.3563 13.2602 21.9938 13.2602 22.7774C13.2602 23.561 12.6521 24.1985 11.9046 24.1985C11.1572 24.1985 10.5491 23.561 10.5491 22.7774C10.5491 21.9938 11.1572 21.3563 11.9046 21.3563Z" fill="#1A2345"/>
</svg>
